<svg xmlns="http://www.w3.org/2000/svg" xmlns:xlink="http://www.w3.org/1999/xlink" width="1920" zoomAndPan="magnify" viewBox="0 0 1440 809.999993" height="1080" preserveAspectRatio="xMidYMid meet" version="1.0"><defs><clipPath id="c8d6125ced"><path d="M 628.6875 371 L 811.6875 371 L 811.6875 439.160156 L 628.6875 439.160156 Z M 628.6875 371 " clip-rule="nonzero"/></clipPath><clipPath id="596ae88d27"><path d="M 628.6875 375 L 811.6875 375 L 811.6875 439.160156 L 628.6875 439.160156 Z M 628.6875 375 " clip-rule="nonzero"/></clipPath><clipPath id="25ab333019"><path d="M 680 371 L 811.6875 371 L 811.6875 439.160156 L 680 439.160156 Z M 680 371 " clip-rule="nonzero"/></clipPath></defs><g clip-path="url(#c8d6125ced)"><path fill="#ffffff" d="M 1124.054688 699.898438 C 1123.722656 699.675781 1123.167969 699.675781 1122.835938 700.007812 C 1122.503906 700.230469 1094.835938 722.03125 1070.265625 759.550781 C 1076.242188 739.851562 1080.117188 723.804688 1081.777344 711.851562 C 1081.777344 711.40625 1081.667969 710.964844 1081.222656 710.742188 C 1080.78125 710.523438 1080.339844 710.523438 1080.007812 710.855469 C 1079.785156 710.964844 1063.847656 723.914062 1048.796875 743.503906 C 1044.039062 681.082031 1038.945312 655.1875 1038.28125 652.308594 C 1038.726562 650.871094 1039.167969 649.429688 1039.609375 647.882812 C 1039.722656 647.4375 1039.832031 646.996094 1039.941406 646.554688 C 1040.164062 645.667969 1040.496094 644.671875 1040.71875 643.789062 C 1043.707031 642.570312 1046.03125 641.351562 1047.910156 639.914062 C 1052.558594 636.484375 1055.214844 631.835938 1055.214844 627.296875 C 1055.214844 612.578125 1055.214844 597.859375 1055.328125 583.140625 C 1055.328125 580.816406 1055.328125 578.269531 1054.332031 575.835938 C 1053.222656 573.179688 1051.34375 571.1875 1049.128906 570.410156 C 1041.050781 567.535156 1033.746094 565.652344 1026.21875 564.433594 C 1026.109375 563.21875 1026 561.890625 1026 560.5625 C 1025.886719 559.125 1025.777344 557.683594 1025.667969 556.355469 C 1025.667969 555.691406 1025.113281 555.25 1024.558594 555.359375 C 1022.566406 555.472656 1020.574219 555.582031 1018.695312 555.804688 C 1018.472656 554.03125 1018.25 552.371094 1018.03125 550.601562 L 1017.699219 547.945312 C 1018.140625 547.722656 1018.472656 547.503906 1018.914062 547.28125 C 1019.136719 547.171875 1019.246094 547.058594 1019.359375 546.839844 C 1023.453125 537.652344 1025.777344 526.695312 1026.21875 515.1875 C 1026.441406 510.207031 1024.226562 505.78125 1020.574219 503.898438 C 1017.917969 502.460938 1014.710938 502.570312 1012.054688 502.570312 L 1006.851562 502.679688 L 1006.851562 479.550781 L 1021.128906 479.550781 C 1021.683594 479.550781 1022.234375 478.996094 1022.234375 478.445312 L 1022.234375 461.066406 C 1022.234375 460.402344 1021.683594 459.960938 1021.128906 459.960938 L 964.796875 459.960938 L 964.796875 452.105469 C 964.796875 451.550781 964.355469 450.996094 963.691406 450.996094 L 804.433594 450.996094 C 803.878906 450.996094 803.328125 451.550781 803.328125 452.105469 L 803.328125 459.960938 L 747.105469 459.960938 C 746.441406 459.960938 746 460.402344 746 461.066406 L 746 478.554688 C 746 479.109375 746.441406 479.660156 747.105469 479.660156 L 761.382812 479.660156 L 761.382812 556.023438 C 758.726562 551.488281 756.292969 547.058594 755.960938 542.191406 C 755.628906 537.542969 753.304688 533.003906 749.539062 529.574219 C 746.21875 526.585938 741.792969 524.484375 736.8125 523.597656 C 727.515625 521.9375 717.445312 524.925781 710.582031 531.234375 C 703.832031 537.320312 700.070312 546.726562 700.511719 555.804688 C 693.207031 558.570312 686.347656 565.210938 683.246094 572.402344 C 680.148438 579.597656 680.148438 588.007812 683.136719 595.3125 C 676.164062 599.851562 670.410156 608.371094 668.859375 616.671875 C 667.199219 624.972656 669.191406 634.046875 674.285156 640.910156 C 671.296875 646.886719 671.183594 654.742188 673.953125 660.5 C 675.945312 664.484375 679.484375 667.914062 683.578125 669.90625 L 680.257812 703.550781 C 680.257812 703.882812 680.371094 704.324219 680.703125 704.546875 C 681.035156 704.765625 681.367188 704.988281 681.699219 705.210938 C 679.597656 709.96875 678.15625 715.058594 677.160156 720.816406 C 676.71875 723.582031 678.488281 726.238281 681.253906 727.011719 C 683.800781 727.675781 686.347656 728.339844 688.890625 729.003906 C 689.445312 729.113281 690 729.226562 690.550781 729.226562 C 691.992188 729.226562 693.429688 728.785156 694.535156 727.789062 L 695.421875 727.011719 C 695.863281 726.679688 696.308594 726.347656 696.640625 726.015625 C 698.078125 724.800781 698.964844 723.027344 698.964844 721.035156 L 698.851562 707.867188 C 699.847656 707.535156 700.734375 707.3125 701.621094 706.871094 C 701.953125 706.757812 702.171875 706.425781 702.285156 705.984375 C 703.722656 695.140625 705.273438 684.070312 706.710938 673.226562 C 707.042969 674.445312 707.484375 675.550781 708.039062 676.546875 C 708.703125 677.652344 709.476562 678.425781 710.25 678.980469 C 708.148438 689.273438 706.601562 699.125 705.050781 708.640625 C 703.167969 720.261719 701.289062 732.433594 698.410156 745.273438 C 690.550781 752.246094 681.585938 760.546875 672.957031 768.625 C 664.324219 776.703125 655.359375 785.113281 647.5 791.976562 C 647.058594 792.308594 646.949219 792.972656 647.28125 793.414062 C 647.390625 793.636719 647.613281 793.96875 647.722656 794.191406 C 644.292969 795.40625 635.992188 798.507812 629.238281 803.042969 C 629.019531 803.265625 628.796875 803.488281 628.796875 803.707031 C 628.6875 804.039062 628.796875 804.261719 629.019531 804.59375 L 658.679688 848.308594 C 658.898438 848.640625 659.230469 848.75 659.5625 848.75 C 659.894531 848.75 660.226562 848.53125 660.449219 848.308594 L 662.441406 845.542969 C 666.203125 840.230469 667.753906 833.367188 666.535156 826.949219 L 665.207031 819.753906 C 665.429688 819.976562 665.539062 820.308594 665.761719 820.640625 C 665.984375 820.863281 666.203125 821.082031 666.425781 821.082031 C 666.535156 821.082031 666.535156 821.082031 666.648438 821.082031 C 666.867188 821.082031 667.089844 820.972656 667.3125 820.863281 C 688.558594 806.585938 709.808594 788.101562 730.617188 766.300781 C 733.382812 763.421875 735.261719 759.882812 736.039062 756.007812 C 736.921875 752.023438 737.808594 747.820312 738.695312 743.722656 C 739.910156 784.78125 739.691406 858.269531 739.691406 859.042969 C 739.691406 859.375 739.800781 859.597656 740.023438 859.820312 C 740.242188 860.039062 740.464844 860.152344 740.796875 860.152344 L 743.5625 860.152344 C 742.679688 863.472656 740.464844 872.214844 740.464844 880.625 C 740.464844 881.179688 741.019531 881.730469 741.570312 881.730469 L 794.25 881.730469 C 794.582031 881.730469 794.914062 881.511719 795.136719 881.289062 C 795.359375 880.957031 795.359375 880.625 795.246094 880.292969 L 794.140625 877.195312 C 791.816406 870.996094 787.058594 866.015625 781.082031 863.359375 L 774.21875 860.371094 L 777.984375 860.371094 C 778.203125 860.371094 778.425781 860.261719 778.648438 860.152344 C 779.199219 859.707031 779.199219 859.707031 779.199219 839.785156 C 779.199219 828.832031 779.089844 811.675781 778.648438 792.199219 C 778.09375 763.867188 776.875 726.238281 774 695.027344 L 882.789062 695.027344 L 882.789062 706.871094 C 879.578125 707.421875 877.035156 710.191406 877.035156 713.621094 C 877.035156 717.382812 880.132812 720.484375 883.894531 720.484375 C 887.660156 720.484375 890.757812 717.382812 890.757812 713.621094 C 890.757812 710.191406 888.210938 707.421875 885.003906 706.871094 L 885.003906 695.027344 L 952.070312 695.027344 C 951.960938 699.34375 951.847656 704.101562 951.847656 709.636719 C 951.847656 709.96875 952.070312 710.410156 952.402344 710.523438 C 953.398438 711.1875 954.394531 711.738281 955.5 712.402344 C 954.617188 718.160156 954.285156 723.914062 954.503906 729.777344 C 954.503906 731.992188 955.722656 733.984375 957.601562 735.089844 C 960.921875 737.082031 966.125 739.628906 972.210938 740.070312 C 972.433594 740.070312 972.542969 740.070312 972.765625 740.070312 C 973.429688 740.070312 974.09375 739.960938 974.648438 739.851562 C 973.871094 780.023438 974.867188 851.1875 976.195312 888.484375 C 976.195312 889.035156 976.75 889.589844 977.304688 889.589844 L 981.175781 889.589844 L 974.09375 892.46875 C 968.007812 895.121094 963.246094 900.214844 961.035156 906.300781 L 959.925781 909.398438 C 959.816406 909.730469 959.816406 910.175781 960.039062 910.394531 C 960.257812 910.726562 960.589844 910.839844 960.921875 910.839844 L 1013.601562 910.839844 C 1014.265625 910.839844 1014.710938 910.285156 1014.710938 909.730469 C 1014.710938 901.320312 1012.496094 892.6875 1011.609375 889.257812 L 1013.933594 889.257812 C 1014.265625 889.257812 1014.488281 889.148438 1014.710938 888.925781 C 1014.929688 888.703125 1015.042969 888.484375 1015.042969 888.152344 C 1015.042969 887.265625 1014.488281 827.835938 1014.488281 773.382812 L 1019.691406 876.972656 C 1019.691406 877.527344 1020.242188 878.078125 1020.796875 878.078125 L 1024.117188 878.078125 C 1022.789062 881.179688 1020.242188 888.261719 1020.574219 898.996094 C 1020.574219 899.550781 1021.128906 900.101562 1021.683594 900.101562 L 1051.675781 900.101562 C 1052.226562 900.101562 1052.78125 899.660156 1052.78125 898.996094 C 1052.78125 898.554688 1053.113281 888.039062 1049.792969 877.96875 L 1054 877.96875 C 1054.332031 877.96875 1054.550781 877.859375 1054.773438 877.636719 C 1054.996094 877.414062 1055.105469 877.082031 1055.105469 876.863281 C 1054.996094 872.65625 1054.882812 868.449219 1054.773438 864.355469 C 1059.3125 859.15625 1114.316406 794.410156 1124.496094 700.894531 C 1124.605469 700.5625 1124.386719 700.121094 1124.054688 699.898438 Z M 888.65625 713.511719 C 888.65625 716.054688 886.550781 718.160156 884.007812 718.160156 C 881.460938 718.160156 879.359375 716.054688 879.359375 713.511719 C 879.359375 711.1875 881.128906 709.195312 883.453125 708.972656 C 883.5625 709.082031 883.785156 709.082031 884.007812 709.082031 C 884.226562 709.082031 884.339844 708.972656 884.558594 708.972656 C 886.882812 709.195312 888.65625 711.1875 888.65625 713.511719 Z M 629.902344 415.582031 L 770.789062 415.582031 C 771.34375 415.582031 771.785156 415.140625 771.894531 414.695312 C 772.007812 414.144531 771.675781 413.589844 771.230469 413.480469 L 748.542969 405.179688 C 748.542969 404.847656 748.542969 404.515625 748.542969 404.183594 C 748.542969 394 740.242188 385.699219 730.0625 385.699219 C 725.414062 385.699219 720.988281 387.472656 717.554688 390.570312 C 714.015625 381.714844 705.492188 375.851562 695.863281 375.851562 C 685.460938 375.851562 676.386719 382.601562 673.398438 392.453125 C 672.625 392.339844 671.738281 392.230469 670.964844 392.230469 C 662.996094 392.230469 656.355469 398.429688 655.800781 406.285156 L 629.570312 413.480469 C 629.019531 413.589844 628.6875 414.144531 628.796875 414.695312 C 628.90625 415.140625 629.351562 415.582031 629.902344 415.582031 Z M 897.621094 430.410156 L 1123.5 430.410156 C 1124.054688 430.410156 1124.496094 430.078125 1124.605469 429.527344 C 1124.71875 428.972656 1124.386719 428.417969 1123.832031 428.308594 L 1094.503906 418.015625 C 1094.613281 417.242188 1094.613281 416.46875 1094.613281 415.582031 C 1094.613281 401.636719 1083.328125 390.347656 1069.382812 390.347656 C 1066.726562 390.347656 1064.179688 390.792969 1061.636719 391.566406 C 1056.101562 379.171875 1043.816406 371.203125 1030.09375 371.203125 C 1018.695312 371.203125 1008.179688 376.734375 1001.652344 386.03125 C 996.78125 382.824219 991.136719 381.050781 985.160156 381.050781 C 972.433594 381.050781 961.035156 389.242188 956.9375 401.195312 C 953.730469 399.3125 950.078125 398.429688 946.425781 398.429688 C 935.246094 398.429688 926.0625 406.949219 925.289062 418.015625 L 897.289062 428.308594 C 896.734375 428.53125 896.511719 428.972656 896.625 429.527344 C 896.625 430.078125 897.066406 430.410156 897.621094 430.410156 Z M 672.070312 528.578125 C 683.246094 528.578125 693.871094 525.257812 701.953125 519.058594 L 711.359375 525.257812 C 711.800781 525.480469 712.242188 525.480469 712.6875 525.257812 C 713.019531 524.925781 713.238281 524.484375 713.019531 524.039062 L 709.144531 511.867188 C 713.128906 506.554688 715.34375 500.46875 715.34375 494.269531 C 715.34375 475.34375 695.976562 459.960938 672.070312 459.960938 C 648.164062 459.960938 628.796875 475.34375 628.796875 494.269531 C 628.796875 513.195312 648.164062 528.578125 672.070312 528.578125 Z M 672.070312 528.578125 " fill-opacity="1" fill-rule="nonzero"/></g><g clip-path="url(#596ae88d27)"><path fill="#ffffff" d="M 629.902344 415.582031 L 770.789062 415.582031 C 771.34375 415.582031 771.785156 415.25 771.894531 414.695312 C 772.007812 414.144531 771.675781 413.699219 771.230469 413.480469 L 748.542969 405.179688 C 748.542969 404.847656 748.542969 404.515625 748.542969 404.183594 C 748.542969 394 740.242188 385.699219 730.0625 385.699219 C 725.414062 385.699219 720.988281 387.472656 717.554688 390.570312 C 714.015625 381.714844 705.492188 375.851562 695.863281 375.851562 C 685.460938 375.851562 676.386719 382.601562 673.398438 392.5625 C 672.625 392.453125 671.738281 392.339844 670.964844 392.339844 C 662.996094 392.339844 656.355469 398.539062 655.800781 406.394531 L 629.570312 413.367188 C 629.019531 413.480469 628.6875 414.03125 628.796875 414.585938 C 628.90625 415.140625 629.351562 415.582031 629.902344 415.582031 Z M 657.238281 408.277344 C 657.683594 408.167969 658.015625 407.722656 658.015625 407.28125 C 658.125 400.308594 663.992188 394.554688 670.964844 394.554688 C 671.960938 394.554688 672.957031 394.664062 673.953125 394.886719 C 674.503906 394.996094 675.167969 394.664062 675.28125 394.113281 C 677.605469 384.703125 686.125 378.0625 695.863281 378.0625 C 705.160156 378.0625 713.238281 384.039062 716.117188 392.785156 C 716.226562 393.117188 716.558594 393.449219 716.890625 393.558594 C 717.335938 393.667969 717.667969 393.558594 718 393.226562 C 721.097656 389.796875 725.523438 387.804688 730.0625 387.804688 C 739.027344 387.804688 746.332031 395.109375 746.332031 404.070312 C 746.332031 404.625 746.332031 405.179688 746.21875 405.730469 C 746.21875 406.285156 746.441406 406.726562 746.996094 406.839844 L 764.589844 413.257812 L 638.316406 413.257812 Z M 794.25 877.082031 C 791.925781 870.886719 787.167969 865.90625 781.191406 863.25 L 769.351562 858.160156 C 769.238281 858.046875 769.019531 858.046875 768.90625 858.046875 L 745.113281 858.046875 C 744.671875 858.046875 744.226562 858.378906 744.007812 858.824219 C 743.894531 859.265625 740.464844 870.222656 740.464844 880.625 C 740.464844 881.289062 740.90625 881.730469 741.570312 881.730469 L 794.25 881.730469 C 794.582031 881.730469 794.914062 881.511719 795.136719 881.289062 C 795.359375 880.957031 795.359375 880.625 795.246094 880.292969 Z M 664.210938 814.441406 C 664.210938 814.222656 664.101562 814.109375 663.992188 814 L 663.105469 812.671875 C 661.554688 810.347656 659.894531 808.023438 658.234375 805.8125 C 655.578125 802.046875 652.921875 798.285156 650.378906 794.410156 C 650.15625 793.96875 649.605469 793.859375 649.160156 793.96875 C 647.28125 794.632812 637.207031 797.953125 629.351562 803.375 C 629.128906 803.488281 628.90625 803.820312 628.90625 804.039062 C 628.90625 804.261719 628.90625 804.59375 629.128906 804.816406 L 658.679688 848.308594 C 658.898438 848.640625 659.230469 848.75 659.5625 848.75 C 659.894531 848.75 660.226562 848.53125 660.449219 848.308594 L 662.441406 845.542969 C 666.316406 840.230469 667.753906 833.367188 666.535156 826.949219 Z M 1055.105469 627.1875 C 1055.105469 612.46875 1055.105469 597.746094 1055.214844 583.027344 C 1055.214844 580.703125 1055.214844 578.160156 1054.21875 575.722656 C 1053.113281 573.066406 1051.230469 571.074219 1049.019531 570.300781 C 1040.9375 567.421875 1033.636719 565.542969 1026.109375 564.324219 C 1026 563.109375 1025.886719 561.78125 1025.886719 560.453125 C 1025.777344 559.011719 1025.667969 557.574219 1025.554688 556.246094 C 1025.554688 555.691406 1025.003906 555.140625 1024.449219 555.25 C 1013.160156 555.804688 1002.09375 557.796875 991.359375 561.003906 C 990.804688 561.117188 990.582031 561.667969 990.582031 562.113281 C 990.695312 563.441406 990.695312 564.765625 990.582031 566.207031 C 990.582031 567.3125 990.472656 568.53125 990.582031 569.636719 C 982.285156 572.292969 973.539062 576.386719 965.238281 581.480469 C 960.257812 584.578125 959.152344 590.996094 958.710938 596.308594 L 955.941406 633.714844 C 955.390625 641.132812 954.949219 647.328125 954.503906 652.75 C 952.957031 672.453125 952.179688 682.300781 951.960938 709.527344 C 951.960938 709.859375 952.179688 710.300781 952.511719 710.410156 C 959.261719 714.839844 966.566406 717.164062 973.652344 717.164062 C 977.414062 717.164062 981.175781 716.5 984.71875 715.171875 C 985.160156 715.058594 985.382812 714.617188 985.382812 714.175781 C 986.15625 693.035156 987.042969 678.648438 987.816406 664.816406 L 988.039062 660.277344 C 994.898438 659.390625 1001.984375 658.285156 1008.734375 657.289062 C 1018.03125 655.851562 1027.769531 654.410156 1037.175781 653.304688 C 1037.621094 653.304688 1037.953125 652.972656 1038.0625 652.53125 C 1038.949219 649.652344 1039.832031 646.664062 1040.496094 643.675781 C 1043.484375 642.460938 1045.808594 641.242188 1047.800781 639.804688 C 1052.449219 636.261719 1055.105469 631.722656 1055.105469 627.1875 Z M 1124.054688 699.898438 C 1123.609375 699.675781 1123.167969 699.675781 1122.835938 700.007812 C 1122.503906 700.230469 1091.40625 724.6875 1065.839844 766.523438 C 1059.863281 776.371094 1054.550781 786.554688 1050.015625 796.734375 C 1049.902344 796.847656 1049.902344 797.066406 1049.902344 797.289062 C 1050.125 801.050781 1050.347656 804.816406 1050.457031 808.800781 L 1050.566406 811.011719 C 1051.34375 828.167969 1052.117188 845.984375 1052.671875 864.023438 C 1052.671875 864.46875 1053.003906 864.910156 1053.335938 865.019531 C 1053.445312 865.019531 1053.554688 865.132812 1053.777344 865.132812 C 1054.109375 865.132812 1054.332031 865.019531 1054.550781 864.800781 C 1055.105469 864.136719 1113.984375 798.0625 1124.605469 701.003906 C 1124.605469 700.5625 1124.386719 700.121094 1124.054688 699.898438 Z M 1124.054688 699.898438 " fill-opacity="1" fill-rule="nonzero"/></g><g clip-path="url(#25ab333019)"><path fill="#1fbbd2" d="M 1123.832031 428.308594 L 1094.503906 418.015625 C 1094.613281 417.242188 1094.613281 416.46875 1094.613281 415.691406 C 1094.613281 401.746094 1083.328125 390.460938 1069.382812 390.460938 C 1066.726562 390.460938 1064.179688 390.902344 1061.636719 391.675781 C 1056.101562 379.171875 1043.816406 371.203125 1030.09375 371.203125 C 1018.695312 371.203125 1008.179688 376.734375 1001.652344 386.03125 C 996.78125 382.824219 991.136719 381.050781 985.160156 381.050781 C 972.433594 381.050781 961.035156 389.242188 956.9375 401.195312 C 953.730469 399.3125 950.078125 398.429688 946.425781 398.429688 C 935.246094 398.429688 926.0625 406.949219 925.289062 418.015625 L 897.289062 428.308594 C 896.734375 428.53125 896.511719 428.972656 896.625 429.527344 C 896.734375 430.078125 897.175781 430.410156 897.730469 430.410156 L 1123.5 430.410156 C 1124.054688 430.410156 1124.496094 429.96875 1124.605469 429.527344 C 1124.71875 429.082031 1124.386719 428.417969 1123.832031 428.308594 Z M 903.816406 428.199219 L 926.726562 419.789062 C 927.167969 419.675781 927.390625 419.234375 927.5 418.792969 C 927.945312 408.609375 936.242188 400.53125 946.425781 400.53125 C 950.1875 400.53125 953.839844 401.636719 956.9375 403.738281 C 957.269531 403.960938 957.601562 403.960938 957.933594 403.851562 C 958.265625 403.738281 958.488281 403.40625 958.597656 403.074219 C 962.03125 391.34375 972.875 383.15625 985.160156 383.15625 C 991.027344 383.15625 996.558594 384.925781 1001.207031 388.355469 C 1001.429688 388.578125 1001.761719 388.578125 1002.09375 388.578125 C 1002.425781 388.578125 1002.648438 388.355469 1002.867188 388.136719 C 1008.957031 378.949219 1019.136719 373.414062 1030.09375 373.414062 C 1043.261719 373.414062 1054.996094 381.273438 1060.085938 393.335938 C 1060.308594 393.890625 1060.972656 394.113281 1061.523438 394 C 1064.070312 393.117188 1066.726562 392.5625 1069.492188 392.5625 C 1082.109375 392.5625 1092.511719 402.855469 1092.511719 415.582031 C 1092.511719 416.578125 1092.402344 417.574219 1092.292969 418.570312 C 1092.179688 419.125 1092.511719 419.566406 1093.066406 419.789062 L 1117.082031 428.199219 Z M 1010.171875 887.15625 L 986.378906 887.15625 C 986.265625 887.15625 986.046875 887.15625 985.933594 887.265625 L 974.203125 892.355469 C 968.117188 895.011719 963.359375 900.101562 961.144531 906.191406 L 960.039062 909.289062 C 959.925781 909.621094 959.925781 909.953125 960.148438 910.285156 C 960.371094 910.617188 960.703125 910.726562 961.035156 910.726562 L 1013.714844 910.726562 C 1014.378906 910.726562 1014.820312 910.285156 1014.820312 909.621094 C 1014.820312 899.21875 1011.5 888.261719 1011.277344 887.820312 C 1011.058594 887.488281 1010.613281 887.15625 1010.171875 887.15625 Z M 1048.355469 875.867188 L 1026.109375 875.867188 C 1025.667969 875.867188 1025.335938 876.085938 1025.113281 876.417969 C 1024.890625 876.75 1020.355469 884.609375 1020.6875 899.105469 C 1020.6875 899.660156 1021.238281 900.214844 1021.792969 900.214844 L 1051.785156 900.214844 C 1052.339844 900.214844 1052.890625 899.769531 1052.890625 899.105469 C 1052.890625 898.664062 1053.222656 887.15625 1049.351562 876.640625 C 1049.238281 876.199219 1048.796875 875.867188 1048.355469 875.867188 Z M 806.09375 599.960938 C 805.652344 599.851562 805.207031 599.960938 804.988281 600.402344 C 801.777344 604.609375 798.566406 608.925781 795.46875 613.019531 C 792.703125 616.671875 789.933594 620.433594 787.058594 624.199219 L 778.203125 606.269531 C 776.765625 603.28125 775.214844 600.292969 773.003906 597.636719 C 770.347656 594.648438 767.46875 592.765625 764.371094 592.101562 C 762.046875 591.660156 759.722656 590.996094 757.621094 590.445312 C 755.628906 589.890625 753.636719 589.449219 751.53125 589.003906 C 751.3125 587.234375 751.199219 585.464844 750.980469 583.691406 C 750.757812 581.699219 750.648438 579.597656 750.316406 577.496094 C 750.203125 577.050781 749.871094 576.609375 749.429688 576.5 C 739.359375 574.394531 728.957031 575.058594 719.214844 578.492188 C 718.664062 578.710938 718.441406 579.15625 718.441406 579.707031 C 718.773438 581.8125 718.882812 583.914062 718.996094 586.015625 C 719.105469 587.789062 719.214844 589.667969 719.4375 591.550781 C 711.578125 593.984375 703.5 597.414062 697.304688 600.957031 C 694.867188 602.394531 691.769531 604.71875 690.441406 608.261719 C 689.335938 611.359375 689.003906 614.570312 688.671875 617.667969 L 680.257812 703.660156 C 680.257812 703.992188 680.371094 704.433594 680.703125 704.65625 C 684.132812 707.421875 688.449219 708.863281 692.988281 708.863281 C 695.976562 708.863281 698.964844 708.199219 701.730469 706.980469 C 702.0625 706.871094 702.285156 706.539062 702.394531 706.09375 C 703.832031 695.25 705.382812 684.183594 706.820312 673.335938 C 707.152344 674.554688 707.59375 675.769531 708.148438 676.65625 C 710.140625 679.976562 713.238281 680.972656 717.554688 679.535156 C 731.832031 673.777344 749.429688 673.117188 766.914062 677.652344 C 770.347656 678.539062 774.332031 676.878906 776.65625 673.667969 C 778.535156 671.011719 779.3125 667.359375 778.757812 663.488281 L 778.648438 662.269531 C 778.425781 660.386719 778.203125 658.507812 777.761719 656.734375 C 780.308594 657.953125 783.40625 658.507812 786.171875 658.175781 C 789.050781 657.84375 791.261719 656.625 792.703125 654.742188 L 822.914062 614.460938 C 823.136719 614.128906 823.246094 613.574219 823.027344 613.242188 C 818.929688 606.378906 812.957031 601.730469 806.09375 599.960938 Z M 1081.222656 710.742188 C 1080.78125 710.523438 1080.339844 710.523438 1080.007812 710.855469 C 1079.785156 710.964844 1062.519531 724.910156 1047.027344 745.714844 C 1046.914062 745.9375 1046.804688 746.160156 1046.804688 746.492188 C 1048.023438 762.316406 1049.019531 779.472656 1050.015625 797.398438 C 1050.234375 801.164062 1050.457031 804.925781 1050.566406 808.910156 L 1050.679688 811.125 C 1050.679688 811.675781 1051.121094 812.117188 1051.5625 812.117188 C 1051.675781 812.117188 1051.675781 812.117188 1051.785156 812.117188 C 1052.226562 812.117188 1052.671875 811.789062 1052.78125 811.34375 C 1056.65625 800.832031 1062.410156 784.671875 1067.832031 767.40625 C 1075.136719 744.054688 1079.894531 725.351562 1081.777344 711.738281 C 1081.777344 711.40625 1081.554688 710.964844 1081.222656 710.742188 Z M 1081.222656 710.742188 " fill-opacity="1" fill-rule="nonzero"/></g></svg>